<svg xmlns="http://www.w3.org/2000/svg" data-name="Layer 1" viewBox="0 0 512 512"><path fill="#ffc166" d="M504.5 139.4v190.73a177.018 177.018 0 0 1-70.06 141.32 111.26 111.26 0 0 1-134.33 0 177.475 177.475 0 0 1-70.05-141.32V121.59a251.35 251.35 0 0 0 66.88 31.12 246.307 246.307 0 0 0 68.56 10.25 250.162 250.162 0 0 0 124.12-32.28 9.989 9.989 0 0 1 14.88 8.72Z"/><path fill="#ffb74e" d="M266.94 152.71a246.307 246.307 0 0 0 68.56 10.25c5.714.04 11.288-.127 16.73-.458a246.885 246.885 0 0 1-55.29-9.792 251.35 251.35 0 0 1-66.88-31.12v16.942a253.224 253.224 0 0 0 36.88 14.178zm222.68-22.03a251.906 251.906 0 0 1-15.177 7.868c.023.282.057.56.057.852v190.73a177.018 177.018 0 0 1-70.06 141.32 111.326 111.326 0 0 1-52.165 21.523 111.242 111.242 0 0 0 82.165-21.523 177.018 177.018 0 0 0 70.06-141.32V139.4a9.989 9.989 0 0 0-14.88-8.72z"/><path fill="#fbfbfb" d="M433.5 401.99c-3.155-35.005-32.667-61.887-67.031-61.465-33.768.415-62.317 27.072-65.411 61.464a138.608 138.608 0 0 1 132.442 0Z"/><path fill="#f2f2f2" d="M401.147 389.37a139.625 139.625 0 0 1 32.353 12.62c-3.155-35.006-32.667-61.887-67.031-61.465a64.605 64.605 0 0 0-14.178 1.768 67.601 67.601 0 0 1 48.856 47.077Z"/><path fill="#fbfbfb" d="M428.806 231.229a38.844 38.844 0 0 0-34.732 21.64 38.693 38.693 0 0 0 69.464 0 38.844 38.844 0 0 0-34.732-21.64Z"/><path fill="#f2f2f2" d="M428.807 231.229a38.558 38.558 0 0 0-7.5.752 39.003 39.003 0 0 1 27.232 20.888 39.004 39.004 0 0 1-27.233 20.887 38.564 38.564 0 0 0 42.233-20.887 38.844 38.844 0 0 0-34.732-21.64Z"/><path fill="#fbfbfb" d="M305.752 231.229a38.844 38.844 0 0 0-34.733 21.64 38.693 38.693 0 0 0 69.465 0 38.844 38.844 0 0 0-34.732-21.64Z"/><path fill="#fbfbfb" d="M296.84 232.27a177.137 177.137 0 0 1-5.7 39.36 39.248 39.248 0 0 1-20.12-18.76 39.005 39.005 0 0 1 25.82-20.6Z"/><path fill="#f2f2f2" d="M305.752 231.229a38.553 38.553 0 0 0-7.5.752 39.004 39.004 0 0 1 27.232 20.888 39.004 39.004 0 0 1-27.232 20.887 38.563 38.563 0 0 0 42.232-20.887 38.844 38.844 0 0 0-34.732-21.64Z"/><path fill="#ffb74e" d="M296.94 152.71v73.82c0 1.92-.03 3.83-.1 5.74a177.346 177.346 0 0 1-63.73 130.67 177.152 177.152 0 0 1-3.05-32.81V121.59a251.35 251.35 0 0 0 66.88 31.12Z"/><path fill="#f2f2f2" d="M296.84 232.27a177.137 177.137 0 0 1-5.7 39.36 39.248 39.248 0 0 1-20.12-18.76 39.005 39.005 0 0 1 25.82-20.6Z"/><path fill="#ff8e66" d="M211.886 367.855a111.266 111.266 0 0 1-134.33 0A177.028 177.028 0 0 1 7.5 226.535V35.808a9.998 9.998 0 0 1 14.913-8.707 249.962 249.962 0 0 0 120.531 32.264 250.095 250.095 0 0 0 124.117-32.286 9.994 9.994 0 0 1 14.881 8.727v190.729a177.027 177.027 0 0 1-70.056 141.32Z"/><path fill="#ff7c4e" d="M267.061 27.08a251.973 251.973 0 0 1-15.176 7.868c.023.285.057.565.057.858v190.729a177.027 177.027 0 0 1-70.056 141.32 111.333 111.333 0 0 1-52.165 21.523 111.247 111.247 0 0 0 82.165-21.523 177.027 177.027 0 0 0 70.056-141.32V35.805a9.994 9.994 0 0 0-14.881-8.726Z"/><path fill="#fbfbfb" d="M210.942 236.923c-3.154 35.005-32.667 61.887-67.03 61.465-33.769-.415-62.317-27.073-65.412-61.465a138.608 138.608 0 0 0 132.442 0Z"/><path fill="#f2f2f2" d="M178.59 249.542a67.602 67.602 0 0 1-48.857 47.077 64.608 64.608 0 0 0 14.178 1.769c34.364.422 63.877-26.46 67.031-61.465a139.635 139.635 0 0 1-32.353 12.62Z"/><path fill="#fbfbfb" d="M206.249 127.632a38.844 38.844 0 0 0-34.733 21.64 38.693 38.693 0 0 0 69.465 0 38.844 38.844 0 0 0-34.732-21.64Z"/><path fill="#f2f2f2" d="M206.249 127.632a38.557 38.557 0 0 0-7.5.752 39.004 39.004 0 0 1 27.232 20.888 39.003 39.003 0 0 1-27.232 20.888 38.564 38.564 0 0 0 42.232-20.888 38.845 38.845 0 0 0-34.732-21.64Z"/><path fill="#fbfbfb" d="M83.194 127.632a38.844 38.844 0 0 0-34.732 21.64 38.693 38.693 0 0 0 69.464 0 38.844 38.844 0 0 0-34.732-21.64Z"/><path fill="#f2f2f2" d="M83.194 127.632a38.555 38.555 0 0 0-7.5.752 39.003 39.003 0 0 1 27.232 20.888 39.003 39.003 0 0 1-27.232 20.888 38.564 38.564 0 0 0 42.232-20.888 38.844 38.844 0 0 0-34.732-21.64Z"/><path fill="#272a33" d="M124.636 152.622a7.496 7.496 0 0 0 0-6.7 46.192 46.192 0 0 0-82.884 0 7.496 7.496 0 0 0 0 6.7 46.192 46.192 0 0 0 82.884 0Zm-67.536-3.35a31.148 31.148 0 0 1 52.188 0 31.148 31.148 0 0 1-52.188 0Zm149.149-29.14a46.148 46.148 0 0 0-41.443 25.79 7.498 7.498 0 0 0 0 6.7 46.193 46.193 0 0 0 82.884 0 7.496 7.496 0 0 0 0-6.7 46.142 46.142 0 0 0-41.441-25.79Zm0 43.28a31.124 31.124 0 0 1-26.095-14.14 31.148 31.148 0 0 1 52.189 0 31.124 31.124 0 0 1-26.094 14.14Zm8.814 67.245a7.503 7.503 0 0 0-7.699-.325 131.819 131.819 0 0 1-62.644 15.933h-.238a131.862 131.862 0 0 1-62.404-15.933 7.5 7.5 0 0 0-11.048 7.264 75.376 75.376 0 0 0 23.542 48.272 73.239 73.239 0 0 0 49.247 20.02c.3.003.592.005.891.005 37.946 0 70.235-29.834 73.702-68.296a7.501 7.501 0 0 0-3.349-6.94Zm-71.06 60.231c-25.067-.307-47.077-17.318-55.072-40.717a146.368 146.368 0 0 0 55.524 11.094h.265a146.347 146.347 0 0 0 55.822-11.106c-8.106 23.986-30.702 41.049-56.54 40.73Zm359.324-166.602a17.303 17.303 0 0 0-17.387-.146 242.622 242.622 0 0 1-120.384 31.321 239.398 239.398 0 0 1-76.114-13.021V35.806a17.494 17.494 0 0 0-26.06-15.262 242.863 242.863 0 0 1-118.67 31.327c-.568 0-1.144-.002-1.714-.006a242.912 242.912 0 0 1-116.905-31.3A17.497 17.497 0 0 0 0 35.809v190.727c0 57.711 27.304 112.779 73.037 147.306a118.765 118.765 0 0 0 143.368 0 179.422 179.422 0 0 0 9.655-7.851 184.96 184.96 0 0 0 69.535 111.448 118.765 118.765 0 0 0 143.368 0C484.696 442.911 512 387.843 512 330.131V139.402a17.345 17.345 0 0 0-8.673-15.116ZM288.601 243.93a30.805 30.805 0 0 1 17.151-5.201 31.127 31.127 0 0 1 26.095 14.14 31.09 31.09 0 0 1-45.526 7.294q1.494-8.04 2.28-16.233Zm-81.233 117.94a103.767 103.767 0 0 1-125.294 0C40.074 330.16 15 279.568 15 226.535V35.808a2.415 2.415 0 0 1 1.233-2.156 2.534 2.534 0 0 1 1.268-.355 2.482 2.482 0 0 1 1.232.34 257.96 257.96 0 0 0 124.158 33.228c.609.004 1.214.006 1.822.006a257.916 257.916 0 0 0 126.026-33.256 2.394 2.394 0 0 1 2.46.024 2.431 2.431 0 0 1 1.243 2.167v190.729c0 53.033-25.074 103.626-67.074 135.335ZM497 330.13c0 53.034-25.074 103.627-67.074 135.335a103.767 103.767 0 0 1-125.294 0 169.95 169.95 0 0 1-65.476-112.075 185.843 185.843 0 0 0 43.547-77.57 46.144 46.144 0 0 0 64.491-19.602 7.498 7.498 0 0 0 0-6.7 46.177 46.177 0 0 0-57.754-22.81l.002-.174V158.24a254.13 254.13 0 0 0 76.006 12.221c.61.005 1.215.007 1.823.007a257.915 257.915 0 0 0 126.027-33.257 2.4 2.4 0 0 1 2.458.024 2.432 2.432 0 0 1 1.244 2.167ZM428.807 223.73a46.143 46.143 0 0 0-41.443 25.79 7.496 7.496 0 0 0 0 6.7 46.192 46.192 0 0 0 82.884 0 7.496 7.496 0 0 0 0-6.7 46.142 46.142 0 0 0-41.441-25.79Zm0 43.28a31.126 31.126 0 0 1-26.095-14.14 31.148 31.148 0 0 1 52.188 0 31.124 31.124 0 0 1-26.093 14.14Zm-61.54 66.011q-.445 0-.89.005a73.239 73.239 0 0 0-49.247 20.02 75.376 75.376 0 0 0-23.542 48.272 7.5 7.5 0 0 0 11.048 7.264 131.854 131.854 0 0 1 62.404-15.934h.237a131.831 131.831 0 0 1 62.645 15.934 7.5 7.5 0 0 0 11.048-7.265c-3.466-38.464-35.752-68.296-73.702-68.296Zm.01 44.627h-.264a146.368 146.368 0 0 0-55.525 11.094c7.995-23.399 30.005-40.409 55.073-40.717 25.81-.352 48.432 16.743 56.539 40.729a146.334 146.334 0 0 0-55.823-11.106Z"/></svg>